# xmcd
#
# Track frame offsets: 
#        150
#        25300
#        43265
#        63015
#        79875
#        104097
#        118070
#        135062
#        153065
#        172797
#        191012
#        208932
#
# Disc length: 3051 seconds
#
# Revision: 0
# Processed by: cddbd v1.5.2PL0 Copyright (c) Steve Scherf et al.
# Submitted via: ExactAudioCopy v0.95b4
#
DISCID=9b0be90c
DTITLE=Keith, Toby - Shock and Y'All
DYEAR=2005
DGENRE=Country
TTITLE0=I Love This Bar
TTITLE1=Whicskey Girl
TTITLE2=American Soldier
TTITLE3=If I Was Jesus
TTITLE4=Time For Me To Ride
TTITLE5=Sweet
TTITLE6=Don't Leave, I Think I Love You
TTITLE7=Nights I Can't Remember, Friends I'll Never Forget
TTITLE8=Baddest Boots
TTITLE9=Critic
TTITLE10=Taliban Song
TTITLE11=Weed With Willie
EXTD=
EXTT0=
EXTT1=
EXTT2=
EXTT3=
EXTT4=
EXTT5=
EXTT6=
EXTT7=
EXTT8=
EXTT9=
EXTT10=
EXTT11=
PLAYORDER=
